<svg color="#e6a23c" xmlns="http://www.w3.org/2000/svg" viewBox="0 0 160 48" width="160" height="48" fill="none" stroke="#e6a23c" stroke-width="1" shape-rendering="geometricPrecision" role="img" aria-hidden="true" data-preset="orbital-relay" data-brand="relic" class="ris-micro-cluster" style="color: #e6a23c; overflow:visible;">
  <defs>
    <style>
      :root, svg {
        --ris-primary: #e6a23c;
        --ris-accent: #e6a23c;
        --ris-yellow: #e6a23c;
        --ris-cyan: #6fb3c9;
        --ris-green: #5fae84;
        --ris-red: #d45565;
        --ris-violet: #8479be;
        --ris-fg4: #97a4ad;
        --ris-bg: #0a0a0c;
        --ris-line: rgba(230, 162, 60, 0.4);
        --ris-font-mono: 'JetBrains Mono', ui-monospace, SFMono-Regular, Menlo, Monaco, Consolas, monospace;
        color: #e6a23c;
        font-family: 'JetBrains Mono', ui-monospace, SFMono-Regular, Menlo, Monaco, Consolas, monospace;
      }
    </style>
  </defs>
  <polygon points="0,6 6,0 154,0 160,6 160,42 154,48 6,48 0,42" fill="#e6a23c" fill-opacity="0.03" stroke="#e6a23c" stroke-width="1" stroke-opacity="0.6" vector-effect="non-scaling-stroke" />
  <path d="M 0 10 L 0 6 L 6 0 L 10 0" fill="none" stroke="#e6a23c" stroke-width="1.25" vector-effect="non-scaling-stroke" />
  <path d="M 150 0 L 154 0 L 160 6 L 160 10" fill="none" stroke="#e6a23c" stroke-width="1.25" vector-effect="non-scaling-stroke" />
  <path d="M 0 38 L 0 42 L 6 48 L 10 48" fill="none" stroke="#e6a23c" stroke-width="1.25" vector-effect="non-scaling-stroke" />
  <path d="M 150 48 L 154 48 L 160 42 L 160 38" fill="none" stroke="#e6a23c" stroke-width="1.25" vector-effect="non-scaling-stroke" />
  <g>
    <polygon points="6,1 154,1 159,6 159,10 1,10 1,6" fill="#e6a23c" fill-opacity="0.08" stroke="none" />
    <line x1="1" y1="10" x2="159" y2="10" stroke="#e6a23c" stroke-width="0.75" stroke-opacity="0.35" vector-effect="non-scaling-stroke" />
    <text x="6" y="7.5" font-size="4.5" font-family="'JetBrains Mono', monospace" font-weight="800" letter-spacing="0.08em" fill="#e6a23c" opacity="0.85" stroke="none">ORBITAL RELAY // SAT-LINK</text>
    <text x="154" y="7.5" text-anchor="end" font-size="4" font-family="'JetBrains Mono', monospace" font-weight="700" fill="#e6a23c" opacity="0.75" stroke="none">SYNC: 99.9%</text>
  </g>
  <g>
    <g transform="translate(6, 11)">
      <svg viewBox="0 0 32 32" width="34" height="34" fill="none" stroke="#e6a23c" stroke-width="1" shape-rendering="geometricPrecision" role="img" aria-hidden="true" data-variant="relay" data-preset="orbital-relay" data-brand="relic" class="ris-micro-constellation" style="color: #e6a23c; overflow:visible;">
        <g>
          <circle cx="16" cy="16" r="11" stroke="#e6a23c" stroke-width="0.75" stroke-dasharray="2 2" stroke-opacity="0.25" fill="none" vector-effect="non-scaling-stroke" />
          <ellipse cx="16" cy="16" rx="13" ry="6" stroke="#e6a23c" stroke-width="0.5" stroke-dasharray="1.5 2" stroke-opacity="0.18" fill="none" transform="rotate(-25 16 16)" vector-effect="non-scaling-stroke" />
        </g>
        <g>
          <line x1="16" y1="16" x2="7" y2="9" stroke="#e6a23c" stroke-width="1" stroke-opacity="0.65" vector-effect="non-scaling-stroke" />
          <line x1="16" y1="16" x2="25" y2="9" stroke="#e6a23c" stroke-width="1" stroke-opacity="0.65" vector-effect="non-scaling-stroke" />
          <line x1="16" y1="16" x2="16" y2="27" stroke="#e6a23c" stroke-width="1" stroke-opacity="0.65" vector-effect="non-scaling-stroke" />
          <line x1="7" y1="9" x2="25" y2="9" stroke="#e6a23c" stroke-width="1" stroke-opacity="0.65" vector-effect="non-scaling-stroke" />
        </g>
        <g>
          <g>
            <circle cx="16" cy="16" r="3" fill="#0a0a0c" stroke="#e6a23c" stroke-width="1" vector-effect="non-scaling-stroke" />
            <circle cx="16" cy="16" r="1.35" fill="#e6a23c" />
            <circle cx="16" cy="16" r="4.5" stroke="#e6a23c" stroke-width="0.75" stroke-dasharray="1.5 1.5" stroke-opacity="0.45" fill="none" vector-effect="non-scaling-stroke" />
            <text x="16" y="23.5" font-size="4" font-family="'JetBrains Mono', monospace" font-weight="600" fill="#e6a23c" text-anchor="middle" stroke="none" opacity="0.8">HUB</text>
          </g>
          <g>
            <circle cx="7" cy="9" r="1.75" fill="#0a0a0c" stroke="#e6a23c" stroke-width="1" vector-effect="non-scaling-stroke" />
            <circle cx="7" cy="9" r="0.7875" fill="#e6a23c" />
            <text x="7" y="15.25" font-size="4" font-family="'JetBrains Mono', monospace" font-weight="600" fill="#e6a23c" text-anchor="start" stroke="none" opacity="0.8">S1</text>
          </g>
          <g>
            <circle cx="25" cy="9" r="1.75" fill="#0a0a0c" stroke="#e6a23c" stroke-width="1" vector-effect="non-scaling-stroke" />
            <circle cx="25" cy="9" r="0.7875" fill="#e6a23c" />
            <text x="25" y="15.25" font-size="4" font-family="'JetBrains Mono', monospace" font-weight="600" fill="#e6a23c" text-anchor="end" stroke="none" opacity="0.8">S2</text>
          </g>
          <g>
            <circle cx="16" cy="27" r="2" fill="#0a0a0c" stroke="#e6a23c" stroke-width="1" vector-effect="non-scaling-stroke" />
            <circle cx="16" cy="27" r="0.9" fill="#e6a23c" />
            <text x="16" y="23" font-size="4" font-family="'JetBrains Mono', monospace" font-weight="600" fill="#e6a23c" text-anchor="middle" stroke="none" opacity="0.8">R1</text>
          </g>
        </g>
      </svg>
    </g>
    <g transform="translate(44, 12)">
      <circle cx="18" cy="16" r="3" fill="#e6a23c" />
      <circle cx="18" cy="16" r="7" fill="none" stroke="#e6a23c" stroke-width="1" opacity="0.6" vector-effect="non-scaling-stroke" />
      <text x="18" y="32" text-anchor="middle" font-size="4" font-family="'JetBrains Mono', monospace" fill="#e6a23c" opacity="0.7" stroke="none">BEACON</text>
    </g>
    <g transform="translate(84, 11)">
      <svg viewBox="0 0 80 40" width="60" height="30" fill="none" stroke="#e6a23c" stroke-width="1" shape-rendering="geometricPrecision" role="img" aria-hidden="true" data-variant="framed" data-brand="relic" class="ris-micro-telemetry" style="color: #e6a23c; overflow:visible;">
        <g>
          <polygon points="0,6 6,0 74,0 80,6 80,34 74,40 6,40 0,34" fill="#e6a23c" fill-opacity="0.04" stroke="#e6a23c" stroke-width="1" stroke-opacity="0.6" vector-effect="non-scaling-stroke" />
          <path d="M 0 10 L 0 6 L 6 0 L 10 0" fill="none" stroke="#e6a23c" stroke-width="1.25" vector-effect="non-scaling-stroke" />
          <path d="M 70 0 L 74 0 L 80 6 L 80 10" fill="none" stroke="#e6a23c" stroke-width="1.25" vector-effect="non-scaling-stroke" />
          <path d="M 0 30 L 0 34 L 6 40 L 10 40" fill="none" stroke="#e6a23c" stroke-width="1.25" vector-effect="non-scaling-stroke" />
          <path d="M 70 40 L 74 40 L 80 34 L 80 30" fill="none" stroke="#e6a23c" stroke-width="1.25" vector-effect="non-scaling-stroke" />
          <polygon points="6,1 74,1 79,6 79,12 1,12 1,6" fill="#e6a23c" fill-opacity="0.12" stroke="none" />
          <line x1="1" y1="12" x2="79" y2="12" stroke="#e6a23c" stroke-width="0.75" stroke-opacity="0.4" vector-effect="non-scaling-stroke" />
          <text x="6" y="9" font-size="5" font-family="'JetBrains Mono', monospace" font-weight="800" letter-spacing="0.08em" fill="#e6a23c" stroke="none">ORBIT-04</text>
          <text x="74" y="9" text-anchor="end" font-size="4.5" font-family="'JetBrains Mono', monospace" fill="#e6a23c" opacity="0.8" stroke="none">軌道中継</text>
          <text x="8" y="23.5" font-size="8.5" font-family="'JetBrains Mono', monospace" font-weight="900" letter-spacing="0.06em" fill="#e6a23c" stroke="none">[LINKED]</text>
          <circle cx="71" cy="20.5" r="2" fill="#e6a23c" />
          <line x1="5" y1="28" x2="75" y2="28" stroke="#e6a23c" stroke-width="0.5" stroke-opacity="0.3" stroke-dasharray="2 2" vector-effect="non-scaling-stroke" />
          <text x="7" y="35.5" font-size="4.5" font-family="'JetBrains Mono', monospace" font-weight="700" fill="#e6a23c" opacity="0.85" stroke="none">CODE: 18ms</text>
          <text x="73" y="35.5" text-anchor="end" font-size="4" font-family="'JetBrains Mono', monospace" fill="#e6a23c" opacity="0.6" stroke="none">SAT-99</text>
        </g>
      </svg>
    </g>
  </g>
</svg>
