<svg color="#e6a23c" xmlns="http://www.w3.org/2000/svg" viewBox="0 0 32 32" width="32" height="32" fill="none" stroke="#e6a23c" stroke-width="1" shape-rendering="geometricPrecision" role="img" aria-hidden="true" data-variant="arc" data-preset="power-gauge" data-brand="relic" class="ris-micro-dial" style="color: #e6a23c; overflow:visible;">
  <defs>
    <style>
      :root, svg {
        --ris-primary: #e6a23c;
        --ris-accent: #e6a23c;
        --ris-yellow: #e6a23c;
        --ris-cyan: #6fb3c9;
        --ris-green: #5fae84;
        --ris-red: #d45565;
        --ris-violet: #8479be;
        --ris-fg4: #97a4ad;
        --ris-bg: #0a0a0c;
        --ris-line: rgba(230, 162, 60, 0.4);
        --ris-font-mono: 'JetBrains Mono', ui-monospace, SFMono-Regular, Menlo, Monaco, Consolas, monospace;
        color: #e6a23c;
        font-family: 'JetBrains Mono', ui-monospace, SFMono-Regular, Menlo, Monaco, Consolas, monospace;
      }
    </style>
  </defs>
  <g>
    <path d="M 6.04 21.75 A 11.5 11.5 0 1 1 25.96 21.75" stroke-width="1.5" opacity="0.2" />
    <path d="M 6.04 21.75 A 11.5 11.5 0 0 1 16 4.5" stroke-width="2" opacity="1" />
    <circle cx="16" cy="4.5" r="1.75" fill="#e6a23c" stroke="none" />
    <line x1="5.17" y1="22.25" x2="3.88" y2="23" stroke-width="1" opacity="0.8" />
    <line x1="3.57" y1="17.31" x2="2.08" y2="17.46" stroke-width="0.75" opacity="0.35" />
    <line x1="4.11" y1="12.14" x2="2.69" y2="11.67" stroke-width="0.75" opacity="0.35" />
    <line x1="6.71" y1="7.64" x2="5.6" y2="6.63" stroke-width="0.75" opacity="0.35" />
    <line x1="10.92" y1="4.58" x2="10.31" y2="3.21" stroke-width="0.75" opacity="0.35" />
    <line x1="16" y1="3.5" x2="16" y2="2" stroke-width="1" opacity="0.8" />
    <line x1="21.08" y1="4.58" x2="21.69" y2="3.21" stroke-width="0.75" opacity="0.35" />
    <line x1="25.29" y1="7.64" x2="26.4" y2="6.63" stroke-width="0.75" opacity="0.35" />
    <line x1="27.89" y1="12.14" x2="29.31" y2="11.67" stroke-width="0.75" opacity="0.35" />
    <line x1="28.43" y1="17.31" x2="29.92" y2="17.46" stroke-width="0.75" opacity="0.35" />
    <line x1="26.83" y1="22.25" x2="28.12" y2="23" stroke-width="1" opacity="0.8" />
    <text x="16" y="16" text-anchor="middle" dominant-baseline="central" font-size="6" font-family="'JetBrains Mono', monospace" font-weight="700" fill="#e6a23c" stroke="none">50</text>
    <text x="16" y="22" text-anchor="middle" font-size="3.5" font-family="'JetBrains Mono', monospace" opacity="0.55" fill="#e6a23c" stroke="none">PWR</text>
  </g>
</svg>
